<svg width="85" height="25" viewBox="0 0 85 25" fill="none" xmlns="http://www.w3.org/2000/svg">
<path d="M7.80933 1H11.2253C14.1119 1 16.1591 3.81593 15.2683 6.5615L12.9968 13.5615C12.4283 15.3133 10.7956 16.5 8.95383 16.5H5.25363C2.30197 16.5 0.249152 13.5647 1.26148 10.792L3.81714 3.79199C4.42943 2.11535 6.02433 1.00003 7.80933 1Z" fill="white" stroke="#006141" stroke-width="1.5"/>
<path d="M11.8093 8H15.2253C18.1119 8 20.1591 10.8159 19.2683 13.5615L16.9968 20.5615C16.4283 22.3133 14.7956 23.5 12.9538 23.5H9.25361C6.30191 23.5 4.24911 20.5647 5.26141 17.792L7.81711 10.792C8.42941 9.1154 10.0243 8 11.8093 8Z" fill="white" stroke="#006141" stroke-width="1.5"/>
<path d="M43.3892 6.50586C44.6027 6.50586 45.5345 6.80232 46.2291 7.35156V7.35254L46.2359 7.35742C46.7965 7.78617 47.1596 8.3533 47.316 9.08789H45.5318C45.4183 8.7146 45.1957 8.39234 44.8697 8.13379C44.4227 7.75777 43.8521 7.59375 43.2095 7.59375C42.6308 7.59375 42.111 7.74344 41.6998 8.08887L41.692 8.0957C41.2691 8.46589 41.0894 8.98578 41.0894 9.57031C41.0895 10.0242 41.24 10.4321 41.5504 10.7598L41.5699 10.7793C41.844 11.0389 42.1695 11.249 42.5386 11.4131L42.5484 11.417L42.5591 11.4209C42.9139 11.5602 43.3967 11.7209 44.0015 11.9023L44.0045 11.9033C44.8069 12.1393 45.4469 12.372 45.9322 12.5977C46.3711 12.8018 46.7541 13.109 47.0806 13.5303C47.3674 13.9004 47.5338 14.4134 47.5338 15.1143C47.5337 15.6948 47.3844 16.2295 47.0836 16.7275C46.789 17.2151 46.3521 17.6167 45.7515 17.9277C45.1643 18.2199 44.4483 18.376 43.5875 18.376C42.7706 18.376 42.0472 18.2364 41.4097 17.9668C40.7889 17.6992 40.311 17.3215 39.9605 16.8369C39.7081 16.4881 39.543 16.0891 39.4693 15.6318H41.1978C41.3004 16.0554 41.5053 16.4259 41.8257 16.7227L41.8326 16.7285C42.2835 17.1311 42.8702 17.3057 43.5338 17.3057C44.1966 17.3056 44.7844 17.15 45.2369 16.7783L45.2447 16.7715C45.6953 16.3852 45.9234 15.8723 45.9234 15.2754C45.9233 14.7926 45.7712 14.3582 45.4439 14.0137C45.1937 13.7503 44.8915 13.5448 44.5455 13.3936L44.3951 13.332C44.0318 13.178 43.5465 13.018 42.9488 12.8506H42.9478C42.152 12.6163 41.5142 12.3909 41.0279 12.1768C40.6018 11.9733 40.2266 11.6727 39.9009 11.2656C39.6247 10.8964 39.4615 10.3772 39.4615 9.66016C39.4615 9.00356 39.6242 8.45501 39.9341 7.99512C40.2472 7.53067 40.6902 7.16902 41.2828 6.91504L41.2896 6.91211C41.8871 6.64542 42.5836 6.5059 43.3892 6.50586ZM30.7388 6.68555C31.9929 6.68555 33.0696 6.93111 33.983 7.4043L33.9849 7.40527C34.908 7.87781 35.6088 8.54716 36.0992 9.41895L36.1031 9.42578C36.6043 10.2866 36.8629 11.3015 36.8629 12.4863C36.8628 13.671 36.6042 14.6852 36.1031 15.5459L36.1021 15.5479C35.6127 16.3962 34.9114 17.057 33.9849 17.5312L33.983 17.5322C33.0697 18.0053 31.9928 18.25 30.7388 18.25H26.8472V6.68555H30.7388ZM67.4957 6.66797L71.6548 18.25H70.0582L69.3463 16.1924L69.23 15.8555H63.5132L63.397 16.1924L62.6851 18.25H61.106L65.2652 6.66797H67.4957ZM54.8443 6.68555C55.7603 6.68555 56.5088 6.84434 57.108 7.13867C57.7139 7.43633 58.144 7.83361 58.4244 8.32422L58.4283 8.33008C58.7266 8.83419 58.8804 9.4116 58.8804 10.0742C58.8804 10.6618 58.7398 11.2087 58.4566 11.7227L58.4527 11.7295C58.1951 12.215 57.7773 12.6224 57.1675 12.9434L57.1646 12.9453C56.5864 13.2551 55.8218 13.4258 54.8443 13.4258H52.2379V18.25H50.7183V6.68555H54.8443ZM28.3668 17.1074H30.649C32.0605 17.1074 33.2238 16.721 34.063 15.8818C34.9014 15.0435 35.2895 13.8872 35.2896 12.4863C35.2896 11.1725 34.9482 10.0706 34.2173 9.23828L34.066 9.0752C33.2278 8.21078 32.0636 7.80957 30.649 7.80957H28.3668V17.1074ZM65.899 8.9209L64.0806 14.1768L63.8511 14.8398H68.8912L68.6617 14.1768L66.8443 8.9209L66.3716 7.55469L65.899 8.9209ZM52.2379 12.3916H54.7359C55.4471 12.3916 56.0748 12.2436 56.5347 11.8682L56.6246 11.79L56.6314 11.7842C57.087 11.3448 57.2886 10.7519 57.2886 10.0742C57.2886 9.36993 57.0891 8.75391 56.6089 8.32422C56.1393 7.904 55.4841 7.73828 54.7359 7.73828H52.2379V12.3916ZM77.7759 14.2539L77.7193 14.1445L73.8345 6.68555H75.5367L78.1021 12.1406L78.5562 13.1064L79.0074 12.1396L81.5543 6.68555H83.2222L79.3521 14.1455L79.2964 14.2539V18.25H77.7759V14.2539Z" fill="#6366F1" stroke="#006141"/>
</svg>
