<svg width="142" height="42" viewBox="0 0 142 42" fill="none" xmlns="http://www.w3.org/2000/svg">
<path d="M13.0869 1H19.1505C24.2744 1 27.9083 5.93961 26.327 10.7558L22.295 23.035C21.2859 26.1079 18.3878 28.1896 15.1185 28.1896H8.55042C3.31107 28.1896 -0.332794 23.0406 1.46414 18.1768L6.00058 5.89761C7.08742 2.95651 9.91845 1.00005 13.0869 1Z" fill="white" stroke="#11BA82" stroke-width="1.5"/>
<path d="M20.1866 13.2764H26.2501C31.374 13.2764 35.0079 18.2159 33.4267 23.0322L29.3946 35.3113C28.3855 38.3843 25.4874 40.4659 22.2181 40.4659H15.6501C10.4106 40.4659 6.76682 35.3169 8.5637 30.4532L13.1002 18.174C14.1871 15.233 17.0181 13.2764 20.1866 13.2764Z" fill="white" stroke="#11BA82" stroke-width="1.5"/>
<mask id="path-3-inside-1_2333_66" fill="white">
<path d="M46.4208 10.0953C48.7638 10.0953 50.8193 10.5479 52.5873 11.453C54.3766 12.3582 55.7504 13.6527 56.709 15.3367C57.6888 16.9997 58.1787 18.9363 58.1787 21.1465C58.1787 23.3568 57.6888 25.2934 56.709 26.9563C55.7504 28.5982 54.3766 29.8718 52.5873 30.7769C50.8193 31.6821 48.7638 32.1346 46.4208 32.1346H38.6247V10.0953H46.4208ZM46.261 28.3772C48.6041 28.3772 50.4146 27.7457 51.6927 26.4827C52.9707 25.2197 53.6097 23.441 53.6097 21.1465C53.6097 18.8521 52.9707 17.0628 51.6927 15.7788C50.4146 14.4737 48.6041 13.8211 46.261 13.8211H43.0979V28.3772H46.261ZM69.2272 32.3557C67.6722 32.3557 66.2664 32.0925 65.0096 31.5663C63.7742 31.04 62.7944 30.2822 62.0702 29.2929C61.3459 28.3035 60.9732 27.1353 60.9519 25.7881H65.7445C65.8084 26.6932 66.1279 27.4089 66.703 27.9352C67.2995 28.4614 68.1089 28.7245 69.1313 28.7245C70.175 28.7245 70.9951 28.4825 71.5915 27.9983C72.188 27.4931 72.4862 26.8406 72.4862 26.0407C72.4862 25.3881 72.2838 24.8513 71.8791 24.4303C71.4744 24.0093 70.9632 23.6831 70.3454 23.4515C69.749 23.1989 68.9183 22.9253 67.8533 22.6306C66.4048 22.2096 65.2226 21.7991 64.3067 21.3991C63.4121 20.9781 62.6346 20.3572 61.9743 19.5362C61.3353 18.6942 61.0158 17.5786 61.0158 16.1893C61.0158 14.8842 61.3459 13.7475 62.0063 12.7792C62.6666 11.8109 63.5932 11.0741 64.786 10.5689C65.9788 10.0427 67.3421 9.77954 68.8757 9.77954C71.1762 9.77954 73.04 10.3374 74.4671 11.453C75.9156 12.5476 76.7143 14.0843 76.8634 16.063H71.943C71.9004 15.3052 71.5702 14.6842 70.9525 14.2C70.3561 13.6948 69.5573 13.4422 68.5562 13.4422C67.6829 13.4422 66.98 13.6633 66.4474 14.1053C65.9362 14.5474 65.6806 15.1894 65.6806 16.0314C65.6806 16.6208 65.8723 17.1155 66.2557 17.5154C66.6604 17.8943 67.1504 18.2101 67.7255 18.4627C68.3219 18.6942 69.1526 18.9679 70.2176 19.2836C71.6661 19.7046 72.8483 20.1256 73.7642 20.5466C74.6801 20.9676 75.4682 21.5991 76.1286 22.4411C76.7889 23.2831 77.119 24.3882 77.119 25.7565C77.119 26.9353 76.8102 28.0299 76.1925 29.0403C75.5748 30.0507 74.6695 30.8611 73.4766 31.4716C72.2838 32.061 70.8673 32.3557 69.2272 32.3557ZM97.2602 16.9155C97.2602 18.0943 96.9726 19.1994 96.3975 20.2309C95.8437 21.2623 94.9597 22.0938 93.7456 22.7253C92.5528 23.3568 91.0404 23.6725 89.2086 23.6725H85.4703V32.1346H80.9972V10.0953H89.2086C90.9339 10.0953 92.4037 10.39 93.6178 10.9794C94.8319 11.5688 95.7372 12.3792 96.3336 13.4107C96.9513 14.4421 97.2602 15.6104 97.2602 16.9155ZM89.0169 20.1046C90.2523 20.1046 91.1682 19.8309 91.7646 19.2836C92.3611 18.7153 92.6593 17.9259 92.6593 16.9155C92.6593 14.7684 91.4451 13.6948 89.0169 13.6948H85.4703V20.1046H89.0169ZM114.111 27.9352H105.229L103.759 32.1346H99.0622L107.082 10.0637H112.29L120.31 32.1346H115.581L114.111 27.9352ZM112.897 24.3988L109.67 15.1789L106.443 24.3988H112.897ZM141.04 10.0953L133.499 24.4619V32.1346H129.026V24.4619L121.454 10.0953H126.502L131.295 20.1677L136.056 10.0953H141.04Z"/>
</mask>
<path d="M46.4208 10.0953C48.7638 10.0953 50.8193 10.5479 52.5873 11.453C54.3766 12.3582 55.7504 13.6527 56.709 15.3367C57.6888 16.9997 58.1787 18.9363 58.1787 21.1465C58.1787 23.3568 57.6888 25.2934 56.709 26.9563C55.7504 28.5982 54.3766 29.8718 52.5873 30.7769C50.8193 31.6821 48.7638 32.1346 46.4208 32.1346H38.6247V10.0953H46.4208ZM46.261 28.3772C48.6041 28.3772 50.4146 27.7457 51.6927 26.4827C52.9707 25.2197 53.6097 23.441 53.6097 21.1465C53.6097 18.8521 52.9707 17.0628 51.6927 15.7788C50.4146 14.4737 48.6041 13.8211 46.261 13.8211H43.0979V28.3772H46.261ZM69.2272 32.3557C67.6722 32.3557 66.2664 32.0925 65.0096 31.5663C63.7742 31.04 62.7944 30.2822 62.0702 29.2929C61.3459 28.3035 60.9732 27.1353 60.9519 25.7881H65.7445C65.8084 26.6932 66.1279 27.4089 66.703 27.9352C67.2995 28.4614 68.1089 28.7245 69.1313 28.7245C70.175 28.7245 70.9951 28.4825 71.5915 27.9983C72.188 27.4931 72.4862 26.8406 72.4862 26.0407C72.4862 25.3881 72.2838 24.8513 71.8791 24.4303C71.4744 24.0093 70.9632 23.6831 70.3454 23.4515C69.749 23.1989 68.9183 22.9253 67.8533 22.6306C66.4048 22.2096 65.2226 21.7991 64.3067 21.3991C63.4121 20.9781 62.6346 20.3572 61.9743 19.5362C61.3353 18.6942 61.0158 17.5786 61.0158 16.1893C61.0158 14.8842 61.3459 13.7475 62.0063 12.7792C62.6666 11.8109 63.5932 11.0741 64.786 10.5689C65.9788 10.0427 67.3421 9.77954 68.8757 9.77954C71.1762 9.77954 73.04 10.3374 74.4671 11.453C75.9156 12.5476 76.7143 14.0843 76.8634 16.063H71.943C71.9004 15.3052 71.5702 14.6842 70.9525 14.2C70.3561 13.6948 69.5573 13.4422 68.5562 13.4422C67.6829 13.4422 66.98 13.6633 66.4474 14.1053C65.9362 14.5474 65.6806 15.1894 65.6806 16.0314C65.6806 16.6208 65.8723 17.1155 66.2557 17.5154C66.6604 17.8943 67.1504 18.2101 67.7255 18.4627C68.3219 18.6942 69.1526 18.9679 70.2176 19.2836C71.6661 19.7046 72.8483 20.1256 73.7642 20.5466C74.6801 20.9676 75.4682 21.5991 76.1286 22.4411C76.7889 23.2831 77.119 24.3882 77.119 25.7565C77.119 26.9353 76.8102 28.0299 76.1925 29.0403C75.5748 30.0507 74.6695 30.8611 73.4766 31.4716C72.2838 32.061 70.8673 32.3557 69.2272 32.3557ZM97.2602 16.9155C97.2602 18.0943 96.9726 19.1994 96.3975 20.2309C95.8437 21.2623 94.9597 22.0938 93.7456 22.7253C92.5528 23.3568 91.0404 23.6725 89.2086 23.6725H85.4703V32.1346H80.9972V10.0953H89.2086C90.9339 10.0953 92.4037 10.39 93.6178 10.9794C94.8319 11.5688 95.7372 12.3792 96.3336 13.4107C96.9513 14.4421 97.2602 15.6104 97.2602 16.9155ZM89.0169 20.1046C90.2523 20.1046 91.1682 19.8309 91.7646 19.2836C92.3611 18.7153 92.6593 17.9259 92.6593 16.9155C92.6593 14.7684 91.4451 13.6948 89.0169 13.6948H85.4703V20.1046H89.0169ZM114.111 27.9352H105.229L103.759 32.1346H99.0622L107.082 10.0637H112.29L120.31 32.1346H115.581L114.111 27.9352ZM112.897 24.3988L109.67 15.1789L106.443 24.3988H112.897ZM141.04 10.0953L133.499 24.4619V32.1346H129.026V24.4619L121.454 10.0953H126.502L131.295 20.1677L136.056 10.0953H141.04Z" fill="#006141"/>
<path d="M52.5873 11.453L48.9415 18.574L48.9588 18.5828L48.976 18.5916L52.5873 11.453ZM56.709 15.3367L49.7563 19.2942L49.786 19.3463L49.8164 19.3979L56.709 15.3367ZM56.709 26.9563L49.8164 22.8952L49.8082 22.9091L49.8001 22.923L56.709 26.9563ZM52.5873 30.7769L48.976 23.6384L48.9588 23.6471L48.9415 23.6559L52.5873 30.7769ZM38.6247 32.1346H30.6247V40.1346H38.6247V32.1346ZM38.6247 10.0953V2.09529H30.6247V10.0953H38.6247ZM51.6927 15.7788L45.9769 21.3761L45.9996 21.3993L46.0226 21.4224L51.6927 15.7788ZM43.0979 13.8211V5.82114H35.0979V13.8211H43.0979ZM43.0979 28.3772H35.0979V36.3772H43.0979V28.3772ZM65.0096 31.5663L61.8745 38.9264L61.8971 38.936L61.9197 38.9455L65.0096 31.5663ZM60.9519 25.7881V17.7881H52.8244L52.9529 25.9145L60.9519 25.7881ZM65.7445 25.7881L73.7247 25.2247L73.1996 17.7881H65.7445V25.7881ZM66.703 27.9352L61.3025 33.8372L61.3558 33.886L61.4101 33.9339L66.703 27.9352ZM71.5915 27.9983L76.6335 34.2095L76.6985 34.1568L76.7623 34.1027L71.5915 27.9983ZM70.3454 23.4515L67.2255 30.8181L67.3802 30.8836L67.5375 30.9425L70.3454 23.4515ZM67.8533 22.6306L65.6204 30.3126L65.67 30.3271L65.7198 30.3408L67.8533 22.6306ZM64.3067 21.3991L60.9004 28.6377L61.0022 28.6856L61.1053 28.7307L64.3067 21.3991ZM61.9743 19.5362L55.6017 24.3726L55.6699 24.4624L55.7406 24.5502L61.9743 19.5362ZM64.786 10.5689L67.9059 17.9355L67.9607 17.9123L68.0151 17.8883L64.786 10.5689ZM74.4671 11.453L69.5401 17.7557L69.5916 17.796L69.6438 17.8355L74.4671 11.453ZM76.8634 16.063V24.063H85.489L84.8408 15.4618L76.8634 16.063ZM71.943 16.063L63.9556 16.512L64.3801 24.063H71.943V16.063ZM70.9525 14.2L65.7818 20.3044L65.8978 20.4027L66.0175 20.4965L70.9525 14.2ZM66.4474 14.1053L61.3377 7.94982L61.2757 8.00126L61.2148 8.05393L66.4474 14.1053ZM66.2557 17.5154L60.4807 23.0516L60.6303 23.2077L60.7882 23.3554L66.2557 17.5154ZM67.7255 18.4627L64.5084 25.7873L64.6678 25.8573L64.8301 25.9204L67.7255 18.4627ZM70.2176 19.2836L67.9437 26.9536L67.9642 26.9597L67.9848 26.9657L70.2176 19.2836ZM73.4766 31.4716L77.0206 38.6438L77.0711 38.6188L77.1212 38.5932L73.4766 31.4716ZM96.3975 20.2309L89.4103 16.3349L89.3793 16.3904L89.3493 16.4464L96.3975 20.2309ZM93.7456 22.7253L90.0541 15.6279L90.0282 15.6414L90.0025 15.655L93.7456 22.7253ZM85.4703 23.6725V15.6725H77.4703V23.6725H85.4703ZM85.4703 32.1346V40.1346H93.4703V32.1346H85.4703ZM80.9972 32.1346H72.9972V40.1346H80.9972V32.1346ZM80.9972 10.0953V2.09529H72.9972V10.0953H80.9972ZM96.3336 13.4107L89.4081 17.4152L89.4388 17.4684L89.4703 17.521L96.3336 13.4107ZM91.7646 19.2836L97.1736 25.178L97.2291 25.1271L97.2836 25.0751L91.7646 19.2836ZM85.4703 13.6948V5.69484H77.4703V13.6948H85.4703ZM85.4703 20.1046H77.4703V28.1046H85.4703V20.1046ZM114.111 27.9352L121.662 25.2925L119.787 19.9352H114.111V27.9352ZM105.229 27.9352V19.9352H99.5528L97.6779 25.2925L105.229 27.9352ZM103.759 32.1346V40.1346H109.435L111.31 34.7773L103.759 32.1346ZM99.0622 32.1346L91.5432 29.4025L87.6436 40.1346H99.0622V32.1346ZM107.082 10.0637V2.06372H101.477L99.5629 7.33161L107.082 10.0637ZM112.29 10.0637L119.809 7.33161L117.895 2.06372H112.29V10.0637ZM120.31 32.1346V40.1346H131.728L127.829 29.4025L120.31 32.1346ZM115.581 32.1346L108.03 34.7773L109.905 40.1346H115.581V32.1346ZM112.897 24.3988V32.3988H124.173L120.448 21.7559L112.897 24.3988ZM109.67 15.1789L117.221 12.536L109.67 -9.03735L102.119 12.536L109.67 15.1789ZM106.443 24.3988L98.8921 21.7559L95.167 32.3988H106.443V24.3988ZM141.04 10.0953L148.124 13.8132L154.274 2.09529L141.04 2.09529V10.0953ZM133.499 24.4619L126.416 20.744L125.499 22.49V24.4619H133.499ZM133.499 32.1346V40.1346H141.499V32.1346H133.499ZM129.026 32.1346H121.026V40.1346H129.026V32.1346ZM129.026 24.4619H137.026V22.4826L136.103 20.7317L129.026 24.4619ZM121.454 10.0953V2.09529H108.194L114.377 13.8255L121.454 10.0953ZM126.502 10.0953L133.726 6.65803L131.555 2.09529H126.502V10.0953ZM131.295 20.1677L124.071 23.605L131.319 38.8379L138.528 23.5863L131.295 20.1677ZM136.056 10.0953V2.09529H130.988L128.823 6.67673L136.056 10.0953ZM46.4208 10.0953V18.0953C47.7231 18.0953 48.4881 18.3419 48.9415 18.574L52.5873 11.453L56.2331 4.33204C53.1506 2.75388 49.8045 2.09529 46.4208 2.09529V10.0953ZM52.5873 11.453L48.976 18.5916C49.415 18.8136 49.6032 19.0251 49.7563 19.2942L56.709 15.3367L63.6616 11.3793C61.8977 8.28037 59.3382 5.90274 56.1986 4.31447L52.5873 11.453ZM56.709 15.3367L49.8164 19.3979C49.9712 19.6605 50.1787 20.1538 50.1787 21.1465H58.1787H66.1787C66.1787 17.7188 65.4064 14.3389 63.6015 11.2756L56.709 15.3367ZM58.1787 21.1465H50.1787C50.1787 22.1393 49.9712 22.6326 49.8164 22.8952L56.709 26.9563L63.6015 31.0175C65.4064 27.9542 66.1787 24.5743 66.1787 21.1465H58.1787ZM56.709 26.9563L49.8001 22.923C49.6621 23.1593 49.4689 23.389 48.976 23.6384L52.5873 30.7769L56.1986 37.9155C59.2842 36.3545 61.8387 34.0371 63.6178 30.9897L56.709 26.9563ZM52.5873 30.7769L48.9415 23.6559C48.4881 23.8881 47.7231 24.1346 46.4208 24.1346V32.1346V40.1346C49.8045 40.1346 53.1506 39.4761 56.2331 37.8979L52.5873 30.7769ZM46.4208 32.1346V24.1346H38.6247V32.1346V40.1346H46.4208V32.1346ZM38.6247 32.1346H46.6247V10.0953H38.6247H30.6247V32.1346H38.6247ZM38.6247 10.0953V18.0953H46.4208V10.0953V2.09529H38.6247V10.0953ZM46.261 28.3772V36.3772C50.0442 36.3772 54.1258 35.3255 57.316 32.1729L51.6927 26.4827L46.0694 20.7925C46.1888 20.6744 46.3201 20.5728 46.4514 20.4922C46.5812 20.4126 46.6847 20.3697 46.7416 20.3499C46.8475 20.3129 46.7277 20.3772 46.261 20.3772V28.3772ZM51.6927 26.4827L57.316 32.1729C60.5066 29.0198 61.6097 24.957 61.6097 21.1465H53.6097H45.6097C45.6097 21.5628 45.5507 21.6382 45.6016 21.4966C45.6281 21.4229 45.6781 21.3086 45.7634 21.1732C45.8495 21.0367 45.9539 20.9066 46.0694 20.7925L51.6927 26.4827ZM53.6097 21.1465H61.6097C61.6097 17.3292 60.5045 13.2917 57.3628 10.1352L51.6927 15.7788L46.0226 21.4224C45.9179 21.3172 45.8225 21.1969 45.7437 21.0706C45.6655 20.9453 45.6201 20.8405 45.5965 20.7745C45.5511 20.6473 45.6097 20.7317 45.6097 21.1465H53.6097ZM51.6927 15.7788L57.4085 10.1815C54.2308 6.93651 50.1161 5.82114 46.261 5.82114V13.8211V21.8211C46.7024 21.8211 46.7944 21.8837 46.6637 21.8367C46.5952 21.812 46.4844 21.7636 46.3515 21.6793C46.2173 21.5943 46.0891 21.4907 45.9769 21.3761L51.6927 15.7788ZM46.261 13.8211V5.82114H43.0979V13.8211V21.8211H46.261V13.8211ZM43.0979 13.8211H35.0979V28.3772H43.0979H51.0979V13.8211H43.0979ZM43.0979 28.3772V36.3772H46.261V28.3772V20.3772H43.0979V28.3772ZM69.2272 32.3557V24.3557C68.5842 24.3557 68.2491 24.2497 68.0996 24.1871L65.0096 31.5663L61.9197 38.9455C64.2837 39.9354 66.7602 40.3557 69.2272 40.3557V32.3557ZM65.0096 31.5663L68.1448 24.2062C68.1027 24.1883 68.1492 24.2029 68.2424 24.275C68.3392 24.3499 68.4403 24.4512 68.5254 24.5675L62.0702 29.2929L55.6149 34.0183C57.2685 36.2773 59.4455 37.8917 61.8745 38.9264L65.0096 31.5663ZM62.0702 29.2929L68.5254 24.5675C68.6734 24.7696 68.7929 25.0047 68.8689 25.2429C68.9427 25.4742 68.9504 25.629 68.9509 25.6616L60.9519 25.7881L52.9529 25.9145C52.9976 28.7458 53.8157 31.5604 55.6149 34.0183L62.0702 29.2929ZM60.9519 25.7881V33.7881H65.7445V25.7881V17.7881H60.9519V25.7881ZM65.7445 25.7881L57.7644 26.3514C57.9472 28.9414 58.969 31.702 61.3025 33.8372L66.703 27.9352L72.1036 22.0331C72.6297 22.5146 73.0523 23.1045 73.3372 23.7425C73.6131 24.3606 73.701 24.89 73.7247 25.2247L65.7445 25.7881ZM66.703 27.9352L61.4101 33.9339C63.8463 36.0835 66.7312 36.7245 69.1313 36.7245V28.7245V20.7245C69.4866 20.7245 70.7526 20.8394 71.996 21.9365L66.703 27.9352ZM69.1313 28.7245V36.7245C71.3551 36.7245 74.1741 36.206 76.6335 34.2095L71.5915 27.9983L66.5496 21.7872C67.8162 20.759 68.995 20.7245 69.1313 20.7245V28.7245ZM71.5915 27.9983L76.7623 34.1027C79.201 32.037 80.4862 29.1289 80.4862 26.0407H72.4862H64.4862C64.4862 25.4258 64.6062 24.6365 64.9863 23.8049C65.3686 22.9683 65.9028 22.3327 66.4208 21.8939L71.5915 27.9983ZM72.4862 26.0407H80.4862C80.4862 23.5849 79.6567 20.9773 77.6464 18.8862L71.8791 24.4303L66.1118 29.9745C65.5767 29.4179 65.1369 28.7353 64.8486 27.9707C64.5664 27.2219 64.4862 26.5471 64.4862 26.0407H72.4862ZM71.8791 24.4303L77.6464 18.8862C76.3116 17.4976 74.7448 16.557 73.1534 15.9605L70.3454 23.4515L67.5375 30.9425C67.1815 30.8091 66.6372 30.5211 66.1118 29.9745L71.8791 24.4303ZM70.3454 23.4515L73.4654 16.085C72.4019 15.6345 71.1889 15.2529 69.9868 14.9203L67.8533 22.6306L65.7198 30.3408C66.6477 30.5976 67.0962 30.7633 67.2255 30.8181L70.3454 23.4515ZM67.8533 22.6306L70.0861 14.9485C68.8197 14.5804 67.9938 14.2797 67.5081 14.0676L64.3067 21.3991L61.1053 28.7307C62.4515 29.3185 63.9899 29.8387 65.6204 30.3126L67.8533 22.6306ZM64.3067 21.3991L67.7131 14.1606C67.8349 14.2179 67.9488 14.2897 68.0453 14.3668C68.1403 14.4427 68.1925 14.5029 68.2081 14.5222L61.9743 19.5362L55.7406 24.5502C57.1112 26.2543 58.8352 27.6659 60.9004 28.6377L64.3067 21.3991ZM61.9743 19.5362L68.3469 14.6999C69.0533 15.6306 69.0158 16.3807 69.0158 16.1893H61.0158H53.0158C53.0158 18.7764 53.6173 21.7578 55.6017 24.3726L61.9743 19.5362ZM61.0158 16.1893H69.0158C69.0158 16.2152 69.0118 16.3625 68.9459 16.5893C68.878 16.8232 68.7658 17.0663 68.6157 17.2864L62.0063 12.7792L55.3968 8.27194C53.7291 10.7175 53.0158 13.4661 53.0158 16.1893H61.0158ZM62.0063 12.7792L68.6157 17.2864C68.4889 17.4723 68.3341 17.6359 68.1754 17.7622C68.0213 17.8847 67.9141 17.932 67.9059 17.9355L64.786 10.5689L61.666 3.20237C59.214 4.24087 57.0117 5.9039 55.3968 8.27194L62.0063 12.7792ZM64.786 10.5689L68.0151 17.8883C68.0272 17.8829 68.2604 17.7795 68.8757 17.7795V9.77954V1.77954C66.4238 1.77954 63.9305 2.2024 61.5569 3.24957L64.786 10.5689ZM68.8757 9.77954V17.7795C69.3866 17.7795 69.6386 17.8421 69.7051 17.862C69.7533 17.8764 69.6682 17.8559 69.5401 17.7557L74.4671 11.453L79.3942 5.15031C76.218 2.66734 72.4727 1.77954 68.8757 1.77954V9.77954ZM74.4671 11.453L69.6438 17.8355C69.466 17.7011 69.2301 17.4545 69.0543 17.1162C68.8873 16.7951 68.881 16.5969 68.8861 16.6641L76.8634 16.063L84.8408 15.4618C84.5371 11.4318 82.7546 7.68845 79.2904 5.07055L74.4671 11.453ZM76.8634 16.063V8.06297H71.943V16.063V24.063H76.8634V16.063ZM71.943 16.063L79.9304 15.6139C79.7537 12.4709 78.2459 9.75201 75.8875 7.90356L70.9525 14.2L66.0175 20.4965C65.5495 20.1297 65.0168 19.5689 64.5998 18.7845C64.1792 17.9935 63.9941 17.1962 63.9556 16.512L71.943 16.063ZM70.9525 14.2L76.1233 8.09567C73.7151 6.05581 70.9071 5.44224 68.5562 5.44224V13.4422V21.4422C68.2075 21.4422 66.9971 21.3339 65.7818 20.3044L70.9525 14.2ZM68.5562 13.4422V5.44224C66.3175 5.44224 63.6494 6.03079 61.3377 7.94982L66.4474 14.1053L71.5572 20.2608C70.3105 21.2957 69.0482 21.4422 68.5562 21.4422V13.4422ZM66.4474 14.1053L61.2148 8.05393C58.5269 10.3782 57.6806 13.4846 57.6806 16.0314H65.6806H73.6806C73.6806 16.4087 73.6241 17.0759 73.3049 17.8775C72.9691 18.7209 72.4176 19.519 71.6801 20.1567L66.4474 14.1053ZM65.6806 16.0314H57.6806C57.6806 18.539 58.5722 21.0607 60.4807 23.0516L66.2557 17.5154L72.0307 11.9792C72.5365 12.5069 72.9814 13.1732 73.2838 13.9536C73.5828 14.725 73.6806 15.4468 73.6806 16.0314H65.6806ZM66.2557 17.5154L60.7882 23.3554C61.9352 24.4293 63.2134 25.2185 64.5084 25.7873L67.7255 18.4627L70.9426 11.138C71.0873 11.2016 71.3857 11.3593 71.7233 11.6754L66.2557 17.5154ZM67.7255 18.4627L64.8301 25.9204C65.7259 26.2681 66.7971 26.6137 67.9437 26.9536L70.2176 19.2836L72.4916 11.6136C71.5082 11.322 70.9179 11.1203 70.6208 11.005L67.7255 18.4627ZM70.2176 19.2836L67.9848 26.9657C69.2205 27.3249 69.9949 27.6187 70.4231 27.8155L73.7642 20.5466L77.1053 13.2777C75.7017 12.6325 74.1116 12.0844 72.4505 11.6015L70.2176 19.2836ZM73.7642 20.5466L70.4231 27.8155C70.2864 27.7527 70.1546 27.671 70.0398 27.5791C69.9266 27.4884 69.8601 27.4119 69.8335 27.3779L76.1286 22.4411L82.4237 17.5043C81.0278 15.7244 79.2483 14.2627 77.1053 13.2777L73.7642 20.5466ZM76.1286 22.4411L69.8335 27.3779C69.4984 26.9507 69.3055 26.5239 69.2062 26.1915C69.1125 25.8778 69.119 25.7079 69.119 25.7565H77.119H85.119C85.119 23.1036 84.4645 20.1067 82.4237 17.5043L76.1286 22.4411ZM77.119 25.7565H69.119C69.119 25.6383 69.1358 25.4741 69.188 25.2891C69.2402 25.1042 69.3103 24.9602 69.367 24.8675L76.1925 29.0403L83.018 33.2131C84.4 30.9525 85.119 28.415 85.119 25.7565H77.119ZM76.1925 29.0403L69.367 24.8675C69.4754 24.6901 69.6012 24.5467 69.7143 24.4454C69.8227 24.3484 69.8792 24.3259 69.8321 24.35L73.4766 31.4716L77.1212 38.5932C79.449 37.4019 81.5344 35.6398 83.018 33.2131L76.1925 29.0403ZM73.4766 31.4716L69.9327 24.2993C70.0685 24.2323 69.9186 24.3557 69.2272 24.3557V32.3557V40.3557C71.816 40.3557 74.4991 39.8897 77.0206 38.6438L73.4766 31.4716ZM97.2602 16.9155H89.2602C89.2602 16.8472 89.2695 16.7402 89.3023 16.6139C89.3352 16.4877 89.3788 16.3914 89.4103 16.3349L96.3975 20.2309L103.385 24.1268C104.623 21.9065 105.26 19.4606 105.26 16.9155H97.2602ZM96.3975 20.2309L89.3493 16.4464C89.4959 16.1734 89.6741 15.955 89.838 15.8008C89.9946 15.6535 90.0909 15.6088 90.0541 15.6279L93.7456 22.7253L97.4371 29.8227C99.8304 28.5778 102.009 26.6904 103.446 24.0153L96.3975 20.2309ZM93.7456 22.7253L90.0025 15.655C90.1574 15.573 90.207 15.5784 90.0817 15.6046C89.9515 15.6318 89.6732 15.6725 89.2086 15.6725V23.6725V31.6725C91.9005 31.6725 94.805 31.2164 97.4887 29.7956L93.7456 22.7253ZM89.2086 23.6725V15.6725H85.4703V23.6725V31.6725H89.2086V23.6725ZM85.4703 23.6725H77.4703V32.1346H85.4703H93.4703V23.6725H85.4703ZM85.4703 32.1346V24.1346H80.9972V32.1346V40.1346H85.4703V32.1346ZM80.9972 32.1346H88.9972V10.0953H80.9972H72.9972V32.1346H80.9972ZM80.9972 10.0953V18.0953H89.2086V10.0953V2.09529H80.9972V10.0953ZM89.2086 10.0953V18.0953C90.0497 18.0953 90.2584 18.2414 90.1241 18.1762L93.6178 10.9794L97.1115 3.78257C94.549 2.5386 91.8181 2.09529 89.2086 2.09529V10.0953ZM93.6178 10.9794L90.1241 18.1762C90.1357 18.1818 90.0299 18.1316 89.8714 17.9897C89.7068 17.8424 89.5414 17.6459 89.4081 17.4152L96.3336 13.4107L103.259 9.40609C101.76 6.8134 99.5653 4.97379 97.1115 3.78257L93.6178 10.9794ZM96.3336 13.4107L89.4703 17.521C89.3913 17.3892 89.3308 17.2433 89.2943 17.1052C89.2588 16.9711 89.2602 16.8983 89.2602 16.9155H97.2602H105.26C105.26 14.2907 104.622 11.6793 103.197 9.30034L96.3336 13.4107ZM89.0169 20.1046V28.1046C91.234 28.1046 94.4906 27.64 97.1736 25.178L91.7646 19.2836L86.3557 13.3893C87.8459 12.0218 89.2706 12.1046 89.0169 12.1046V20.1046ZM91.7646 19.2836L97.2836 25.0751C99.8115 22.6662 100.659 19.5837 100.659 16.9155H92.6593H84.6593C84.6593 16.6407 84.6996 16.1058 84.9518 15.4381C85.2164 14.7379 85.6534 14.0566 86.2457 13.4921L91.7646 19.2836ZM92.6593 16.9155H100.659C100.659 14.336 99.8846 11.0151 97.0479 8.50683C94.3989 6.16459 91.2385 5.69484 89.0169 5.69484V13.6948V21.6948C89.2235 21.6948 87.8843 21.7619 86.4494 20.4932C84.8268 19.0585 84.6593 17.3479 84.6593 16.9155H92.6593ZM89.0169 13.6948V5.69484H85.4703V13.6948V21.6948H89.0169V13.6948ZM85.4703 13.6948H77.4703V20.1046H85.4703H93.4703V13.6948H85.4703ZM85.4703 20.1046V28.1046H89.0169V20.1046V12.1046H85.4703V20.1046ZM114.111 27.9352V19.9352H105.229V27.9352V35.9352H114.111V27.9352ZM105.229 27.9352L97.6779 25.2925L96.2081 29.492L103.759 32.1346L111.31 34.7773L112.78 30.5779L105.229 27.9352ZM103.759 32.1346V24.1346H99.0622V32.1346V40.1346H103.759V32.1346ZM99.0622 32.1346L106.581 34.8667L114.601 12.7958L107.082 10.0637L99.5629 7.33161L91.5432 29.4025L99.0622 32.1346ZM107.082 10.0637V18.0637H112.29V10.0637V2.06372H107.082V10.0637ZM112.29 10.0637L104.771 12.7958L112.791 34.8667L120.31 32.1346L127.829 29.4025L119.809 7.33161L112.29 10.0637ZM120.31 32.1346V24.1346H115.581V32.1346V40.1346H120.31V32.1346ZM115.581 32.1346L123.132 29.492L121.662 25.2925L114.111 27.9352L106.56 30.5778L108.03 34.7773L115.581 32.1346ZM112.897 24.3988L120.448 21.7559L117.221 12.536L109.67 15.1789L102.119 17.8217L105.346 27.0416L112.897 24.3988ZM109.67 15.1789L102.119 12.536L98.8921 21.7559L106.443 24.3988L113.994 27.0416L117.221 17.8217L109.67 15.1789ZM106.443 24.3988V32.3988H112.897V24.3988V16.3988H106.443V24.3988ZM141.04 10.0953L133.956 6.37742L126.416 20.744L133.499 24.4619L140.583 28.1798L148.124 13.8132L141.04 10.0953ZM133.499 24.4619H125.499V32.1346H133.499H141.499V24.4619H133.499ZM133.499 32.1346V24.1346H129.026V32.1346V40.1346H133.499V32.1346ZM129.026 32.1346H137.026V24.4619H129.026H121.026V32.1346H129.026ZM129.026 24.4619L136.103 20.7317L128.531 6.36508L121.454 10.0953L114.377 13.8255L121.949 28.1921L129.026 24.4619ZM121.454 10.0953V18.0953H126.502V10.0953V2.09529H121.454V10.0953ZM126.502 10.0953L119.278 13.5326L124.071 23.605L131.295 20.1677L138.519 16.7305L133.726 6.65803L126.502 10.0953ZM131.295 20.1677L138.528 23.5863L143.288 13.5139L136.056 10.0953L128.823 6.67673L124.062 16.7492L131.295 20.1677ZM136.056 10.0953V18.0953H141.04V10.0953V2.09529H136.056V10.0953Z" fill="#11BA82" mask="url(#path-3-inside-1_2333_66)"/>
</svg>
